<mxfile host="app.diagrams.net" agent="Mozilla/5.0 (Macintosh; Intel Mac OS X 10_15_7) AppleWebKit/605.1.15 (KHTML, like Gecko) Version/17.6 Safari/605.1.15" version="24.8.3">
  <diagram name="Page-1" id="2nuuVh-UjFW74554KL16">
    <mxGraphModel dx="594" dy="728" grid="1" gridSize="10" guides="1" tooltips="1" connect="1" arrows="1" fold="1" page="1" pageScale="1" pageWidth="827" pageHeight="1169" math="0" shadow="0">
      <root>
        <mxCell id="0" />
        <mxCell id="1" parent="0" />
        <mxCell id="Zh9HqDG4_1FCcRAzwwiT-15" style="edgeStyle=orthogonalEdgeStyle;rounded=0;orthogonalLoop=1;jettySize=auto;html=1;exitX=0.5;exitY=1;exitDx=0;exitDy=0;entryX=0.5;entryY=0;entryDx=0;entryDy=0;" parent="1" source="Zh9HqDG4_1FCcRAzwwiT-1" target="Zh9HqDG4_1FCcRAzwwiT-5" edge="1">
          <mxGeometry relative="1" as="geometry" />
        </mxCell>
        <mxCell id="Zh9HqDG4_1FCcRAzwwiT-1" value="Boss A" style="rounded=0;whiteSpace=wrap;html=1;" parent="1" vertex="1">
          <mxGeometry x="280" y="170" width="120" height="60" as="geometry" />
        </mxCell>
        <mxCell id="Zh9HqDG4_1FCcRAzwwiT-2" value="Company A" style="text;html=1;align=center;verticalAlign=middle;whiteSpace=wrap;rounded=0;fontStyle=5" parent="1" vertex="1">
          <mxGeometry x="300" y="120" width="80" height="30" as="geometry" />
        </mxCell>
        <mxCell id="Zh9HqDG4_1FCcRAzwwiT-3" value="Company B" style="text;html=1;align=center;verticalAlign=middle;whiteSpace=wrap;rounded=0;fontStyle=5" parent="1" vertex="1">
          <mxGeometry x="580" y="120" width="80" height="30" as="geometry" />
        </mxCell>
        <mxCell id="Zh9HqDG4_1FCcRAzwwiT-4" value="Boss B" style="rounded=0;whiteSpace=wrap;html=1;" parent="1" vertex="1">
          <mxGeometry x="560" y="170" width="120" height="60" as="geometry" />
        </mxCell>
        <mxCell id="Zh9HqDG4_1FCcRAzwwiT-14" style="edgeStyle=orthogonalEdgeStyle;rounded=0;orthogonalLoop=1;jettySize=auto;html=1;exitX=0.5;exitY=1;exitDx=0;exitDy=0;entryX=0.5;entryY=0;entryDx=0;entryDy=0;" parent="1" source="Zh9HqDG4_1FCcRAzwwiT-5" target="Zh9HqDG4_1FCcRAzwwiT-8" edge="1">
          <mxGeometry relative="1" as="geometry" />
        </mxCell>
        <mxCell id="Zh9HqDG4_1FCcRAzwwiT-5" value="Admin Employee A" style="rounded=0;whiteSpace=wrap;html=1;" parent="1" vertex="1">
          <mxGeometry x="280" y="250" width="120" height="60" as="geometry" />
        </mxCell>
        <mxCell id="-Bb6MdbtTvelGCzHpUCq-3" style="edgeStyle=orthogonalEdgeStyle;rounded=0;orthogonalLoop=1;jettySize=auto;html=1;exitX=0.5;exitY=0;exitDx=0;exitDy=0;entryX=0.5;entryY=1;entryDx=0;entryDy=0;" edge="1" parent="1" source="Zh9HqDG4_1FCcRAzwwiT-6" target="Zh9HqDG4_1FCcRAzwwiT-4">
          <mxGeometry relative="1" as="geometry" />
        </mxCell>
        <mxCell id="Zh9HqDG4_1FCcRAzwwiT-6" value="Admin Employee B" style="rounded=0;whiteSpace=wrap;html=1;" parent="1" vertex="1">
          <mxGeometry x="560" y="250" width="120" height="60" as="geometry" />
        </mxCell>
        <mxCell id="Zh9HqDG4_1FCcRAzwwiT-11" style="edgeStyle=orthogonalEdgeStyle;rounded=0;orthogonalLoop=1;jettySize=auto;html=1;exitX=1;exitY=0.5;exitDx=0;exitDy=0;entryX=0;entryY=0.5;entryDx=0;entryDy=0;" parent="1" source="Zh9HqDG4_1FCcRAzwwiT-7" target="Zh9HqDG4_1FCcRAzwwiT-10" edge="1">
          <mxGeometry relative="1" as="geometry" />
        </mxCell>
        <mxCell id="Zh9HqDG4_1FCcRAzwwiT-7" value="Postal Carrier" style="rounded=0;whiteSpace=wrap;html=1;" parent="1" vertex="1">
          <mxGeometry x="280" y="410" width="120" height="60" as="geometry" />
        </mxCell>
        <mxCell id="Zh9HqDG4_1FCcRAzwwiT-13" style="edgeStyle=orthogonalEdgeStyle;rounded=0;orthogonalLoop=1;jettySize=auto;html=1;exitX=0.5;exitY=1;exitDx=0;exitDy=0;entryX=0.5;entryY=0;entryDx=0;entryDy=0;" parent="1" source="Zh9HqDG4_1FCcRAzwwiT-8" target="Zh9HqDG4_1FCcRAzwwiT-7" edge="1">
          <mxGeometry relative="1" as="geometry" />
        </mxCell>
        <mxCell id="Zh9HqDG4_1FCcRAzwwiT-8" value="Lawyer A" style="rounded=0;whiteSpace=wrap;html=1;" parent="1" vertex="1">
          <mxGeometry x="280" y="330" width="120" height="60" as="geometry" />
        </mxCell>
        <mxCell id="-Bb6MdbtTvelGCzHpUCq-2" style="edgeStyle=orthogonalEdgeStyle;rounded=0;orthogonalLoop=1;jettySize=auto;html=1;exitX=0.5;exitY=0;exitDx=0;exitDy=0;entryX=0.5;entryY=1;entryDx=0;entryDy=0;" edge="1" parent="1" source="Zh9HqDG4_1FCcRAzwwiT-9" target="Zh9HqDG4_1FCcRAzwwiT-6">
          <mxGeometry relative="1" as="geometry" />
        </mxCell>
        <mxCell id="Zh9HqDG4_1FCcRAzwwiT-9" value="Lawyer B" style="rounded=0;whiteSpace=wrap;html=1;" parent="1" vertex="1">
          <mxGeometry x="560" y="330" width="120" height="60" as="geometry" />
        </mxCell>
        <mxCell id="-Bb6MdbtTvelGCzHpUCq-1" style="edgeStyle=orthogonalEdgeStyle;rounded=0;orthogonalLoop=1;jettySize=auto;html=1;exitX=0.5;exitY=0;exitDx=0;exitDy=0;entryX=0.5;entryY=1;entryDx=0;entryDy=0;" edge="1" parent="1" source="Zh9HqDG4_1FCcRAzwwiT-10" target="Zh9HqDG4_1FCcRAzwwiT-9">
          <mxGeometry relative="1" as="geometry" />
        </mxCell>
        <mxCell id="Zh9HqDG4_1FCcRAzwwiT-10" value="Postal Carrier" style="rounded=0;whiteSpace=wrap;html=1;" parent="1" vertex="1">
          <mxGeometry x="560" y="410" width="120" height="60" as="geometry" />
        </mxCell>
        <mxCell id="Zh9HqDG4_1FCcRAzwwiT-19" value="Transport Layer:" style="text;html=1;align=right;verticalAlign=middle;whiteSpace=wrap;rounded=0;fontStyle=1" parent="1" vertex="1">
          <mxGeometry x="80" y="345" width="120" height="30" as="geometry" />
        </mxCell>
        <mxCell id="Zh9HqDG4_1FCcRAzwwiT-20" value="Presentation Layer:" style="text;html=1;align=right;verticalAlign=middle;whiteSpace=wrap;rounded=0;fontStyle=1" parent="1" vertex="1">
          <mxGeometry x="80" y="265" width="120" height="30" as="geometry" />
        </mxCell>
        <mxCell id="Zh9HqDG4_1FCcRAzwwiT-21" value="Application Layer:" style="text;html=1;align=right;verticalAlign=middle;whiteSpace=wrap;rounded=0;fontStyle=1" parent="1" vertex="1">
          <mxGeometry x="80" y="185" width="120" height="30" as="geometry" />
        </mxCell>
        <mxCell id="Zh9HqDG4_1FCcRAzwwiT-22" value="Network Layer:" style="text;html=1;align=right;verticalAlign=middle;whiteSpace=wrap;rounded=0;fontStyle=1" parent="1" vertex="1">
          <mxGeometry x="80" y="425" width="120" height="30" as="geometry" />
        </mxCell>
      </root>
    </mxGraphModel>
  </diagram>
</mxfile>
